# xmcd
#
# Track frame offsets: 
#        150
#        8287
#        20162
#        33362
#        48847
#
# Disc length: 892 seconds
#
# Revision: 2
# Processed by: cddbd v1.5.1PL2 Copyright (c) Steve Scherf et al.
# Submitted via: ExactAudioCopy v0.95b4
#
DISCID=2c037a05
DTITLE=Laura Cantrell - Laura Cantrell (Hello Recording Club Selection
DTITLE=, July 1996)
DYEAR=1996
DGENRE=Country
TTITLE0=Cellar Door
TTITLE1=Roll Truck Roll
TTITLE2=No Place For Me
TTITLE3=The Curse of Hook Mountain
TTITLE4=Lee Harvey Was A Friend of Mine
EXTD=YEAR: 1996
EXTT0=
EXTT1=
EXTT2=
EXTT3=
EXTT4=
PLAYORDER=
